<?xml version="1.0" encoding="iso-8859-1"?>
<!-- Uploaded to: SVG Repo, www.svgrepo.com, Generator: SVG Repo Mixer Tools -->
<svg version="1.1" id="Layer_1" xmlns="http://www.w3.org/2000/svg" xmlns:xlink="http://www.w3.org/1999/xlink" 
	 viewBox="0 0 512 512" xml:space="preserve">
<path style="fill:#E24642;" d="M484.005,140.234c-8.257-16.413-18.316-31.921-29.926-46.16
	c-15.495-19.005-33.561-35.717-53.799-49.641C358.156,15.451,307.658,0,256.529,0c-48.085,0-94.905,13.481-135.402,38.986
	c-3.708,2.336-4.821,7.234-2.485,10.941c2.336,3.708,7.233,4.822,10.941,2.485c35.73-22.503,76.72-35.017,119.011-36.41v14.147
	c0,4.382,3.552,7.934,7.934,7.934c4.382,0,7.934-3.552,7.934-7.934V16.014c26.127,0.859,51.206,5.929,74.572,14.57l-8.205,19.809
	c-1.677,4.048,0.245,8.689,4.294,10.366c0.993,0.412,2.022,0.606,3.033,0.606c3.113,0,6.068-1.845,7.333-4.9l8.234-19.88
	c23.855,10.686,45.641,25.181,64.593,42.703L403.25,94.356c-3.098,3.098-3.098,8.122,0,11.22c1.549,1.549,3.58,2.324,5.61,2.324
	s4.061-0.774,5.61-2.324l15.143-15.143c17.763,18.74,32.516,40.356,43.497,64.062l-19.778,8.193
	c-4.048,1.677-5.971,6.319-4.294,10.366c1.266,3.056,4.22,4.9,7.333,4.9c1.012,0,2.041-0.195,3.033-0.606l19.889-8.239
	c9.283,24.159,14.742,50.195,15.635,77.37h-18.365c-4.382,0-7.934,3.552-7.934,7.934c0,4.382,3.552,7.934,7.934,7.934h18.379
	c-1.369,41.455-13.444,81.737-35.137,116.964c-2.298,3.731-1.135,8.618,2.596,10.916c1.297,0.799,2.734,1.18,4.152,1.18
	c2.664,0,5.265-1.341,6.764-3.774c24.615-39.975,37.626-86.041,37.626-133.219C510.942,214.887,501.774,175.554,484.005,140.234z"/>
<g>
	<path style="fill:#4C4C4C;" d="M332.694,113.19h-50.777c-4.382,0-7.934,3.552-7.934,7.934s3.552,7.934,7.934,7.934h42.843v34.909
		h-42.843c-4.382,0-7.934,3.552-7.934,7.934v50.777c0,4.382,3.552,7.934,7.934,7.934h50.777c4.382,0,7.934-3.552,7.934-7.934
		c0-4.382-3.552-7.934-7.934-7.934h-42.843v-34.909h42.843c4.382,0,7.934-3.552,7.934-7.934v-50.777
		C340.628,116.742,337.076,113.19,332.694,113.19z"/>
	<path style="fill:#4C4C4C;" d="M425.785,180.893h-13.223v-38.612c0-4.382-3.552-7.934-7.934-7.934s-7.934,3.552-7.934,7.934v38.612
		h-26.446v-59.769c0-4.382-3.552-7.934-7.934-7.934s-7.934,3.552-7.934,7.934v67.702c0,4.382,3.552,7.934,7.934,7.934h34.38v25.917
		c0,4.382,3.552,7.934,7.934,7.934s7.934-3.552,7.934-7.934V196.76h13.223c4.382,0,7.934-3.552,7.934-7.934
		C433.719,184.445,430.167,180.893,425.785,180.893z"/>
</g>
<path style="fill:#FF7452;" d="M422.626,350.741c-17.482-17.483-40.727-27.111-65.451-27.111c-24.724,0-47.969,9.629-65.451,27.111
	c-6.265,6.264-11.525,13.275-15.719,20.934L138.391,234.06c7.659-4.193,14.67-9.454,20.935-15.719
	c36.09-36.09,36.09-94.812,0-130.903c-36.09-36.09-94.812-36.09-130.903,0C12.082,103.779,2.49,125.483,1.415,148.55
	c-1.027,22.032,5.764,43.546,19.165,60.878c0.383,1.069,1.003,2.072,1.859,2.929L296.212,486.13
	c0.663,0.663,1.414,1.185,2.217,1.565c16.575,13.648,37.249,21.047,58.75,21.047c1.08,0,2.165-0.019,3.249-0.056
	c23.484-0.814,45.574-10.417,62.198-27.042c17.483-17.483,27.111-40.727,27.111-65.451
	C449.737,391.468,440.109,368.223,422.626,350.741z"/>
<path style="fill:#E24642;" d="M159.325,218.342c36.09-36.09,36.09-94.812,0-130.903c-36.09-36.09-94.812-36.09-130.903,0
	c-2.886,2.886-5.549,5.946-8.004,9.145l129.767,129.767C153.382,223.895,156.437,221.231,159.325,218.342z"/>
<path style="fill:#FF7452;" d="M276.005,371.675L138.391,234.06c4.128-2.26,8.06-4.84,11.795-7.71L20.419,96.584
	C8.972,111.495,2.301,129.556,1.415,148.55c-1.027,22.032,5.764,43.546,19.165,60.878c0.383,1.069,1.003,2.072,1.859,2.929
	L296.212,486.13c0.663,0.663,1.414,1.185,2.217,1.565c16.575,13.648,37.249,21.047,58.75,21.047c1.08,0,2.165-0.019,3.249-0.056
	c19.405-0.672,37.849-7.361,53.053-19.039L283.715,359.88C280.845,363.615,278.265,367.547,276.005,371.675z"/>
<path style="fill:#E24642;" d="M449.737,416.191c0-24.724-9.629-47.968-27.111-65.451c-17.482-17.483-40.727-27.111-65.451-27.111
	c-24.724,0-47.969,9.629-65.451,27.111c-2.889,2.888-5.554,5.943-8.009,9.139l129.767,129.767c3.196-2.454,6.258-5.116,9.145-8.003
	C440.109,464.16,449.737,440.916,449.737,416.191z"/>
<path style="fill:#FFD652;" d="M502.913,412.577L357.798,267.462c-9.279-9.279-24.38-9.279-33.66,0l-37.4,37.4
	c-9.281,9.279-9.281,24.38,0,33.66l145.115,145.115c4.64,4.64,10.735,6.961,16.83,6.961s12.191-2.32,16.83-6.961l37.4-37.4
	C512.194,436.957,512.194,421.857,502.913,412.577z"/>
<rect x="353.42" y="307.448" transform="matrix(-0.7071 -0.7071 0.7071 -0.7071 390.6205 877.1907)" style="fill:#F7EDBC;" width="47.125" height="100.495"/>
<g>
	<path style="fill:#FB9D46;" d="M502.913,412.577l-22.175-22.175l-71.061,71.061l22.175,22.175c4.64,4.64,10.735,6.961,16.83,6.961
		s12.191-2.32,16.83-6.961l37.4-37.4C512.194,436.957,512.194,421.857,502.913,412.577z"/>
	<path style="fill:#FB9D46;" d="M100.481,10.145c-9.281-9.281-24.381-9.279-33.661,0l-37.399,37.4
		c-9.281,9.281-9.281,24.38,0,33.661l16.356,16.356l71.061-71.061L100.481,10.145z"/>
</g>
<rect x="70.348" y="38.225" transform="matrix(-0.7071 -0.7071 0.7071 -0.7071 121.3781 227.2222)" style="fill:#FFD652;" width="74.8" height="100.495"/>
<rect x="100.079" y="108.238" transform="matrix(-0.7071 0.7071 -0.7071 -0.7071 349.2888 117.4196)" style="fill:#F7EDBC;" width="100.495" height="45.625"/>
<path style="fill:#FFD652;" d="M245.596,155.26l-43.601-43.601l-71.061,71.061l43.601,43.601c4.64,4.64,10.735,6.961,16.83,6.961
	c6.095,0,12.19-2.32,16.83-6.961l37.4-37.4C254.877,179.64,254.877,164.54,245.596,155.26z"/>
<path style="fill:#458FDE;" d="M190.015,318.438c-2.494-2.335-6.204-2.809-9.205-1.178l-61.908,33.606
	c-10.655-4.688-21.987-7.063-33.745-7.063c-46.372,0-84.099,37.727-84.099,84.099S38.785,512,85.157,512
	s84.099-37.727,84.099-84.099c0-12.171-2.54-23.869-7.556-34.837l30.104-65.52C193.23,324.44,192.51,320.771,190.015,318.438z"/>
<g>
	<path style="fill:#4F5AA8;" d="M107.372,489.785c-46.372,0-84.099-37.727-84.099-84.099c0-17.521,5.393-33.804,14.596-47.288
		C15.666,373.553,1.058,399.05,1.058,427.901C1.058,474.273,38.785,512,85.157,512c28.851,0,54.348-14.608,69.503-36.811
		C141.176,484.392,124.893,489.785,107.372,489.785z"/>
	<path style="fill:#4F5AA8;" d="M85.157,399.868c-4.382,0-7.934-3.552-7.934-7.934V379.24c0-4.382,3.552-7.934,7.934-7.934
		s7.934,3.552,7.934,7.934v12.694C93.091,396.315,89.539,399.868,85.157,399.868z"/>
	<path style="fill:#4F5AA8;" d="M85.157,484.496c-4.382,0-7.934-3.552-7.934-7.934v-63.471c0-4.382,3.552-7.934,7.934-7.934
		s7.934,3.552,7.934,7.934v63.471C93.091,480.944,89.539,484.496,85.157,484.496z"/>
</g>
</svg>