<?xml version="1.0" encoding="iso-8859-1"?>
<!-- Uploaded to: SVG Repo, www.svgrepo.com, Generator: SVG Repo Mixer Tools -->
<svg height="800px" width="800px" version="1.1" id="Layer_1" xmlns="http://www.w3.org/2000/svg" xmlns:xlink="http://www.w3.org/1999/xlink" 
	 viewBox="0 0 512 512" xml:space="preserve">
<path style="fill:#E5E5E5;" d="M470.128,0H41.872C19.952,0,2.12,17.832,2.12,39.752v432.497C2.12,494.168,19.952,512,41.872,512
	h428.257c21.92,0,39.752-17.832,39.752-39.752V39.752C509.88,17.832,492.048,0,470.128,0z"/>
<path style="fill:#458FDE;" d="M509.88,39.752C509.88,17.832,492.048,0,470.128,0H41.872C19.952,0,2.12,17.832,2.12,39.752v39.222
	h507.76V39.752z"/>
<path style="fill:#F2F2F2;" d="M2.12,78.973v393.275C2.12,494.168,19.952,512,41.872,512h428.257
	c21.92,0,39.752-17.832,39.752-39.752V78.973H2.12z"/>
<path style="fill:#4F5AA8;" d="M60.864,0H41.872C19.952,0,2.12,17.832,2.12,39.752v39.222h18.993V39.752
	C21.113,17.832,38.945,0,60.864,0z"/>
<path style="fill:#CCCCCC;" d="M21.113,472.248V78.973H2.12v393.275C2.12,494.168,19.952,512,41.872,512h18.993
	C38.945,512,21.113,494.168,21.113,472.248z"/>
<circle style="fill:#FF7452;" cx="73.673" cy="43.992" r="14.841"/>
<circle style="fill:#AFF078;" cx="139.395" cy="43.992" r="14.841"/>
<circle style="fill:#FFD652;" cx="205.118" cy="43.992" r="14.841"/>
<g>
	<path style="fill:#4C4C4C;" d="M74.733,339.743c-2.034,0-4.069-0.776-5.622-2.329l-34.981-34.981
		c-3.105-3.105-3.105-8.139,0-11.243l36.041-36.041c3.106-3.105,8.139-3.105,11.244,0c3.105,3.105,3.105,8.139,0,11.243
		l-30.42,30.42l29.36,29.36C85.232,331.048,81.73,339.743,74.733,339.743z"/>
	<path style="fill:#4C4C4C;" d="M437.267,339.743c-6.997,0-10.499-8.696-5.622-13.572l29.361-29.36l-30.42-30.42
		c-3.105-3.105-3.105-8.139,0-11.243c3.106-3.105,8.139-3.105,11.244,0l36.041,36.041c3.105,3.105,3.105,8.139,0,11.243
		l-34.981,34.981C441.337,338.967,439.301,339.743,437.267,339.743z"/>
</g>
<g>
	<path style="fill:#4F5AA8;" d="M400.166,62.542H294.161c-4.392,0-7.95-3.56-7.95-7.95s3.559-7.95,7.95-7.95h106.004
		c4.392,0,7.95,3.56,7.95,7.95S404.557,62.542,400.166,62.542z"/>
	<path style="fill:#4F5AA8;" d="M461.648,62.542h-27.561c-4.392,0-7.95-3.56-7.95-7.95s3.559-7.95,7.95-7.95h27.561
		c4.392,0,7.95,3.56,7.95,7.95S466.04,62.542,461.648,62.542z"/>
</g>
<path style="fill:#FFD652;" d="M410.204,245.499l-62.962-62.963c-1.588-1.587-3.814-2.435-6.028-2.318
	c-0.136-0.006-0.272-0.011-0.41-0.011H171.197c-0.138,0-0.275,0.003-0.41,0.011c-2.229-0.11-4.439,0.731-6.028,2.318l-62.962,62.963
	c-3.105,3.105-3.105,8.139,0,11.243l38.978,38.978c1.491,1.491,3.513,2.329,5.622,2.329s4.13-0.837,5.622-2.329l11.228-11.229
	v119.915c0,4.391,3.559,7.95,7.95,7.95h169.607c4.392,0,7.95-3.56,7.95-7.95V284.491l11.229,11.229
	c1.491,1.491,3.513,2.329,5.622,2.329s4.13-0.837,5.622-2.329l38.978-38.978C413.308,253.638,413.308,248.604,410.204,245.499z"/>
<path style="fill:#FB9D46;" d="M171.197,180.207c-0.138,0-0.275,0.003-0.41,0.011c-2.229-0.11-4.439,0.731-6.028,2.318
	l-62.962,62.963c-3.105,3.105-3.105,8.139,0,11.243l38.978,38.978c1.491,1.491,3.513,2.329,5.622,2.329s4.13-0.837,5.622-2.329
	l11.228-11.229v119.915c0,4.391,3.559,7.95,7.95,7.95h93.08l-82.253-232.149H171.197z"/>
<g>
	<path style="fill:#FF7452;" d="M317.05,180.207h-122.1c-5.904,1.832-7.631,7.722-5.193,11.934l23.163,40.009
		c2.731,4.717,9.236,5.757,12.962,1.59l22.168-24.774v200.74c0,0.931,0.169,1.82,0.462,2.65h14.976
		c0.294-0.83,0.462-1.719,0.462-2.65v-200.74l22.167,24.774c3.726,4.167,10.232,3.127,12.962-1.59l23.163-40.009
		C324.681,187.929,322.953,182.04,317.05,180.207z"/>
	<path style="fill:#FF7452;" d="M311.122,272.431h-27.561c-4.392,0-7.95-3.56-7.95-7.95s3.559-7.95,7.95-7.95h27.561
		c4.392,0,7.95,3.56,7.95,7.95S315.514,272.431,311.122,272.431z"/>
	<path style="fill:#FF7452;" d="M228.439,272.431h-27.561c-4.392,0-7.95-3.56-7.95-7.95s3.559-7.95,7.95-7.95h27.561
		c4.392,0,7.95,3.56,7.95,7.95S232.831,272.431,228.439,272.431z"/>
</g>
</svg>