<?xml version="1.0" encoding="iso-8859-1"?>
<!-- Uploaded to: SVG Repo, www.svgrepo.com, Generator: SVG Repo Mixer Tools -->
<!DOCTYPE svg PUBLIC "-//W3C//DTD SVG 1.1//EN" "http://www.w3.org/Graphics/SVG/1.1/DTD/svg11.dtd">
<svg version="1.1" id="Layer_1" xmlns="http://www.w3.org/2000/svg" xmlns:xlink="http://www.w3.org/1999/xlink" 
	 viewBox="0 0 512 512" xml:space="preserve">
<path style="fill:#FB9D46;" d="M444.715,351.853v-98.825c0-13.044-10.611-23.655-23.655-23.655H90.94
	c-13.044,0-23.655,10.611-23.655,23.655v98.825c0,2.764,0.482,5.418,1.356,7.885h374.717
	C444.233,357.269,444.715,354.617,444.715,351.853z"/>
<g>
	<circle style="fill:#E24642;" cx="103.556" cy="254.084" r="13.667"/>
	<circle style="fill:#E24642;" cx="164.534" cy="254.084" r="13.667"/>
	<circle style="fill:#E24642;" cx="225.511" cy="254.084" r="13.667"/>
	<circle style="fill:#E24642;" cx="286.489" cy="254.084" r="13.667"/>
	<circle style="fill:#E24642;" cx="347.466" cy="254.084" r="13.667"/>
	<circle style="fill:#E24642;" cx="408.444" cy="254.084" r="13.667"/>
	<circle style="fill:#E24642;" cx="103.556" cy="302.445" r="13.667"/>
	<circle style="fill:#E24642;" cx="164.534" cy="302.445" r="13.667"/>
	<circle style="fill:#E24642;" cx="225.511" cy="302.445" r="13.667"/>
	<circle style="fill:#E24642;" cx="286.489" cy="302.445" r="13.667"/>
	<circle style="fill:#E24642;" cx="347.466" cy="302.445" r="13.667"/>
	<circle style="fill:#E24642;" cx="408.444" cy="302.445" r="13.667"/>
	<circle style="fill:#E24642;" cx="103.556" cy="350.807" r="13.667"/>
	<circle style="fill:#E24642;" cx="164.534" cy="350.807" r="13.667"/>
	<circle style="fill:#E24642;" cx="225.511" cy="350.807" r="13.667"/>
	<circle style="fill:#E24642;" cx="286.489" cy="350.807" r="13.667"/>
	<circle style="fill:#E24642;" cx="347.466" cy="350.807" r="13.667"/>
	<circle style="fill:#E24642;" cx="408.444" cy="350.807" r="13.667"/>
</g>
<path style="fill:#FF7452;" d="M488.345,359.738H23.655C10.611,359.738,0,370.349,0,383.393v103.031
	c0,13.044,10.611,23.655,23.655,23.655h464.69c13.044,0,23.655-10.611,23.655-23.655V383.393
	C512,370.349,501.389,359.738,488.345,359.738z"/>
<rect x="218.152" y="359.743" style="fill:#CA3D3B;" width="75.696" height="150.341"/>
<g>
	<path style="fill:#F2F2F2;" d="M512,383.393c0-4.99-1.557-9.621-4.205-13.441L367.669,510.079h59.472L512,425.219V383.393z"/>
	<polygon style="fill:#F2F2F2;" points="409.196,359.738 258.855,510.079 318.327,510.079 468.668,359.738 	"/>
	<polygon style="fill:#F2F2F2;" points="300.383,359.738 150.042,510.079 209.514,510.079 359.855,359.738 	"/>
	<polygon style="fill:#F2F2F2;" points="191.57,359.738 41.229,510.079 100.701,510.079 251.042,359.738 	"/>
	<path style="fill:#F2F2F2;" d="M82.757,359.738L0,442.495v43.929c0,4.446,1.235,8.609,3.377,12.166l138.852-138.852H82.757z"/>
</g>
<path style="fill:#FFD652;" d="M377.429,221.487v-82.004c0-13.044-10.611-23.655-23.655-23.655H158.226
	c-13.044,0-23.655,10.611-23.655,23.655v82.004c0,2.764,0.482,5.418,1.356,7.885h240.146
	C376.948,226.904,377.429,224.251,377.429,221.487z"/>
<g>
	<polygon style="fill:#F2F2F2;" points="377.429,165.09 328.167,115.828 298.429,115.828 377.429,194.827 	"/>
	<path style="fill:#F2F2F2;" d="M246.913,115.828l113.544,113.544h15.615c0.876-2.467,1.356-5.121,1.356-7.885v-4.881
		L276.651,115.828C276.651,115.828,246.913,115.828,246.913,115.828z"/>
	<polygon style="fill:#F2F2F2;" points="195.398,115.828 308.942,229.372 338.68,229.372 225.136,115.828 	"/>
	<path style="fill:#F2F2F2;" d="M158.226,115.828c-4.133,0-8.02,1.068-11.404,2.938l110.606,110.606h29.737L173.621,115.828H158.226
		z"/>
	<path style="fill:#F2F2F2;" d="M134.571,139.483v18.549l71.34,71.34h29.737l-99.177-99.177
		C135.25,133.049,134.571,136.187,134.571,139.483z"/>
	<polygon style="fill:#F2F2F2;" points="134.571,209.546 154.396,229.372 184.134,229.372 134.571,179.809 	"/>
</g>
<g>
	<rect x="218.331" y="229.377" style="fill:#FF7452;" width="75.521" height="130.366"/>
	<path style="fill:#FF7452;" d="M286.489,316.107c-7.549,0-13.667-6.119-13.667-13.667c0-7.549,6.119-13.667,13.667-13.667
		c2.712,0,5.234,0.8,7.359,2.163v-25.352c-2.126,1.363-4.647,2.163-7.359,2.163c-7.549,0-13.667-6.119-13.667-13.667
		s6.119-13.667,13.667-13.667c2.712,0,5.234,0.8,7.359,2.163v-13.202h-75.521v13.095c2.089-1.295,4.545-2.056,7.184-2.056
		c7.549,0,13.667,6.119,13.667,13.667s-6.119,13.667-13.667,13.667c-2.639,0-5.095-0.761-7.184-2.056v25.14
		c2.089-1.295,4.545-2.056,7.184-2.056c7.549,0,13.667,6.119,13.667,13.667c0,7.549-6.119,13.667-13.667,13.667
		c-2.639,0-5.095-0.761-7.184-2.056v25.139c2.089-1.295,4.545-2.056,7.184-2.056c7.549,0,13.667,6.119,13.667,13.667
		c0,3.42-1.265,6.539-3.341,8.936h40.326c-2.076-2.397-3.341-5.516-3.341-8.936c0-7.549,6.119-13.667,13.667-13.667
		c2.712,0,5.234,0.8,7.359,2.163v-25.352C291.722,315.307,289.201,316.107,286.489,316.107z"/>
</g>
<g>
	<path style="fill:#C42725;" d="M239.179,254.079c0-7.549-6.119-13.667-13.667-13.667c-2.639,0-5.095,0.761-7.184,2.056v23.222
		c2.089,1.295,4.545,2.056,7.184,2.056C233.06,267.746,239.179,261.626,239.179,254.079z"/>
	<path style="fill:#C42725;" d="M272.821,254.079c0,7.549,6.119,13.667,13.667,13.667c2.712,0,5.234-0.8,7.359-2.163v-23.01
		c-2.126-1.363-4.647-2.163-7.359-2.163C278.94,240.411,272.821,246.53,272.821,254.079z"/>
	<path style="fill:#C42725;" d="M239.179,302.44c0-7.549-6.119-13.667-13.667-13.667c-2.639,0-5.095,0.761-7.184,2.056v23.222
		c2.089,1.295,4.545,2.056,7.184,2.056C233.06,316.107,239.179,309.987,239.179,302.44z"/>
	<path style="fill:#C42725;" d="M272.821,302.44c0,7.549,6.119,13.667,13.667,13.667c2.712,0,5.234-0.8,7.359-2.163v-23.009
		c-2.126-1.363-4.647-2.163-7.359-2.163C278.94,288.773,272.821,294.891,272.821,302.44z"/>
	<path style="fill:#C42725;" d="M225.511,337.134c-2.639,0-5.095,0.761-7.184,2.056v20.547h17.51
		c2.076-2.397,3.341-5.516,3.341-8.936C239.179,343.253,233.06,337.134,225.511,337.134z"/>
	<path style="fill:#C42725;" d="M272.821,350.801c0,3.42,1.265,6.539,3.341,8.936h17.686v-20.441
		c-2.126-1.363-4.647-2.163-7.359-2.163C278.94,337.134,272.821,343.253,272.821,350.801z"/>
</g>
<path style="fill:#FF7452;" d="M218.152,339.237c0,0.711,0.07,1.402,0.176,2.084v-4.166
	C218.222,337.834,218.152,338.526,218.152,339.237z"/>
<path style="fill:#FFD652;" d="M158.226,115.828c-13.044,0-23.655,10.611-23.655,23.655v82.004c0,2.764,0.482,5.418,1.356,7.885
	h82.4V115.828H158.226z"/>
<rect x="218.331" y="115.823" style="fill:#FB9D46;" width="75.521" height="113.544"/>
<path style="fill:#FFD652;" d="M353.774,115.828h-59.926v113.544h82.225c0.876-2.467,1.356-5.121,1.356-7.885v-82.004
	C377.429,126.439,366.818,115.828,353.774,115.828z"/>
<polygon style="fill:#F2F2F2;" points="377.429,165.09 328.167,115.828 298.429,115.828 377.429,194.827 "/>
<polygon style="fill:#CCCCCC;" points="276.651,115.828 246.913,115.828 293.848,162.762 293.848,133.025 "/>
<g>
	<path style="fill:#F2F2F2;" d="M293.848,133.025v29.737l66.609,66.609h15.615c0.876-2.467,1.356-5.121,1.356-7.885v-4.881
		L293.848,133.025z"/>
	<polygon style="fill:#F2F2F2;" points="195.398,115.828 218.328,138.757 218.328,115.828 	"/>
</g>
<polygon style="fill:#CCCCCC;" points="293.848,184.54 225.136,115.828 218.328,115.828 218.328,138.757 293.848,214.277 "/>
<g>
	<polygon style="fill:#F2F2F2;" points="338.68,229.372 293.848,184.54 293.848,214.277 308.942,229.372 	"/>
	<path style="fill:#F2F2F2;" d="M173.621,115.828h-15.395c-4.133,0-8.02,1.068-11.404,2.938l71.505,71.505v-29.737L173.621,115.828z
		"/>
</g>
<g>
	<polygon style="fill:#CCCCCC;" points="287.165,229.372 218.328,160.535 218.328,190.272 257.427,229.372 	"/>
	<polygon style="fill:#CCCCCC;" points="218.328,212.05 218.328,229.372 235.649,229.372 	"/>
</g>
<g>
	<path style="fill:#F2F2F2;" d="M136.473,130.196c-1.223,2.853-1.902,5.992-1.902,9.287v18.549l71.34,71.34h12.415V212.05
		L136.473,130.196z"/>
	<polygon style="fill:#F2F2F2;" points="134.571,209.546 154.396,229.372 184.134,229.372 134.571,179.809 	"/>
</g>
<g>
	<polygon style="fill:#CCCCCC;" points="258.855,510.079 293.848,510.079 293.848,475.086 	"/>
	<polygon style="fill:#CCCCCC;" points="293.848,366.273 218.152,441.969 218.152,501.441 293.848,425.745 	"/>
	<polygon style="fill:#CCCCCC;" points="218.152,359.738 218.152,392.628 251.042,359.738 	"/>
</g>
<g>
	<path style="fill:#E24642;" d="M365.266,14.06c-16.192-16.192-42.537-16.192-58.729,0c-10.672,10.672-37.202,63.459-50.537,90.738
		c-13.336-27.279-39.865-80.065-50.537-90.738c-16.192-16.192-42.538-16.192-58.729,0c-16.192,16.192-16.192,42.537,0,58.729
		c9.438,9.438,51.812,31.277,80.355,45.426v391.863h57.823V118.215c28.543-14.149,70.917-35.987,80.355-45.426
		C381.458,56.598,381.458,30.253,365.266,14.06z M157.885,25.211c5.021-5.021,11.617-7.533,18.213-7.533
		c6.596,0,13.192,2.511,18.213,7.533c7.288,7.288,28.528,47.959,45.049,81.475c-33.517-16.52-74.187-37.761-81.475-45.049
		C147.843,51.596,147.843,35.255,157.885,25.211z M354.115,61.638c-7.288,7.288-47.959,28.528-81.475,45.049
		c16.52-33.517,37.761-74.187,45.049-81.475c10.043-10.042,26.384-10.042,36.427,0C364.157,35.255,364.157,51.596,354.115,61.638z"
		/>
	<path style="fill:#E24642;" d="M505.154,69.638c-5.352-0.712-18.843-3.692-28.475-15.972c-6.843-8.729-8.486-18.201-8.856-23.068
		c-0.313-4.111-3.74-7.287-7.863-7.287c-4.123,0-7.55,3.176-7.863,7.287c-0.37,4.869-2.014,14.339-8.855,23.067
		c-9.633,12.283-23.124,15.262-28.476,15.974c-3.919,0.52-6.846,3.863-6.846,7.817s2.928,7.295,6.846,7.817
		c5.353,0.712,18.844,3.691,28.475,15.972c6.843,8.729,8.486,18.201,8.856,23.068c0.313,4.111,3.74,7.287,7.863,7.287
		c4.123,0,7.55-3.176,7.863-7.287c0.37-4.869,2.014-14.339,8.855-23.067c9.633-12.283,23.124-15.262,28.476-15.974
		c3.919-0.52,6.846-3.863,6.846-7.817C512,73.5,509.072,70.158,505.154,69.638z"/>
	<path style="fill:#E24642;" d="M97.236,69.638c-5.353-0.712-18.844-3.691-28.475-15.972c-6.843-8.729-8.486-18.201-8.856-23.068
		c-0.313-4.111-3.74-7.287-7.863-7.287s-7.55,3.176-7.863,7.287c-0.37,4.869-2.014,14.339-8.856,23.068
		C25.69,65.945,12.2,68.926,6.846,69.638C2.928,70.158,0,73.5,0,77.454c0,3.954,2.928,7.295,6.846,7.817
		c5.353,0.712,18.844,3.691,28.475,15.972c6.843,8.729,8.486,18.201,8.856,23.068c0.313,4.111,3.74,7.287,7.863,7.287
		s7.55-3.176,7.863-7.287c0.37-4.869,2.014-14.339,8.855-23.067c9.633-12.283,23.124-15.262,28.476-15.974
		c3.918-0.52,6.846-3.863,6.846-7.816C104.082,73.501,101.154,70.158,97.236,69.638z"/>
</g>
</svg>